<mxfile host="app.diagrams.net" modified="2021-07-16T07:47:46.141Z" agent="5.0 (Windows NT 10.0; Win64; x64) AppleWebKit/537.36 (KHTML, like Gecko) Chrome/91.0.4472.164 Safari/537.36" etag="DgcjKPrrWgo3ucKdVOI8" version="14.8.5" type="github">
  <diagram id="zkNUz-Caxsvvmp0IogfI" name="Page-1">
    <mxGraphModel dx="1422" dy="705" grid="1" gridSize="10" guides="1" tooltips="1" connect="1" arrows="1" fold="1" page="1" pageScale="1" pageWidth="827" pageHeight="1169" math="0" shadow="0">
      <root>
        <mxCell id="0" />
        <mxCell id="1" parent="0" />
        <mxCell id="6F3bBYGoPtr7Zg1Nwe4L-1" value="" style="rounded=0;whiteSpace=wrap;html=1;fontSize=14;align=left;fillColor=#f5f5f5;strokeColor=#666666;fontColor=#333333;" vertex="1" parent="1">
          <mxGeometry x="90" y="230" width="595" height="400" as="geometry" />
        </mxCell>
        <mxCell id="6F3bBYGoPtr7Zg1Nwe4L-2" value="" style="endArrow=classic;startArrow=classic;html=1;fontSize=14;align=left;entryX=0;entryY=0.25;entryDx=0;entryDy=0;" edge="1" parent="1" source="6F3bBYGoPtr7Zg1Nwe4L-11" target="6F3bBYGoPtr7Zg1Nwe4L-7">
          <mxGeometry width="50" height="50" relative="1" as="geometry">
            <mxPoint x="460" y="690" as="sourcePoint" />
            <mxPoint x="510" y="640" as="targetPoint" />
          </mxGeometry>
        </mxCell>
        <mxCell id="6F3bBYGoPtr7Zg1Nwe4L-3" style="rounded=0;orthogonalLoop=1;jettySize=auto;html=1;exitX=0;exitY=0.75;exitDx=0;exitDy=0;fontSize=14;" edge="1" parent="1" source="6F3bBYGoPtr7Zg1Nwe4L-5">
          <mxGeometry relative="1" as="geometry">
            <mxPoint x="160" y="450" as="targetPoint" />
          </mxGeometry>
        </mxCell>
        <mxCell id="6F3bBYGoPtr7Zg1Nwe4L-4" style="edgeStyle=none;rounded=0;orthogonalLoop=1;jettySize=auto;html=1;entryX=0.75;entryY=0;entryDx=0;entryDy=0;exitX=0.75;exitY=1;exitDx=0;exitDy=0;fontSize=14;" edge="1" parent="1" source="6F3bBYGoPtr7Zg1Nwe4L-5" target="6F3bBYGoPtr7Zg1Nwe4L-7">
          <mxGeometry relative="1" as="geometry" />
        </mxCell>
        <mxCell id="6F3bBYGoPtr7Zg1Nwe4L-5" value="UI" style="rounded=1;whiteSpace=wrap;html=1;fontSize=14;" vertex="1" parent="1">
          <mxGeometry x="390" y="270" width="120" height="60" as="geometry" />
        </mxCell>
        <mxCell id="6F3bBYGoPtr7Zg1Nwe4L-6" value="" style="edgeStyle=none;rounded=0;orthogonalLoop=1;jettySize=auto;html=1;exitX=0.25;exitY=0;exitDx=0;exitDy=0;entryX=0.25;entryY=1;entryDx=0;entryDy=0;fontSize=14;" edge="1" parent="1" source="6F3bBYGoPtr7Zg1Nwe4L-7" target="6F3bBYGoPtr7Zg1Nwe4L-5">
          <mxGeometry x="0.1" y="-20" relative="1" as="geometry">
            <mxPoint as="offset" />
          </mxGeometry>
        </mxCell>
        <mxCell id="6F3bBYGoPtr7Zg1Nwe4L-7" value="Proxy" style="rounded=1;whiteSpace=wrap;html=1;fontSize=14;" vertex="1" parent="1">
          <mxGeometry x="390" y="530" width="120" height="60" as="geometry" />
        </mxCell>
        <mxCell id="6F3bBYGoPtr7Zg1Nwe4L-8" style="rounded=0;orthogonalLoop=1;jettySize=auto;html=1;entryX=0;entryY=0.5;entryDx=0;entryDy=0;fontSize=14;" edge="1" parent="1" target="6F3bBYGoPtr7Zg1Nwe4L-5">
          <mxGeometry relative="1" as="geometry">
            <mxPoint x="150" y="440" as="sourcePoint" />
          </mxGeometry>
        </mxCell>
        <mxCell id="6F3bBYGoPtr7Zg1Nwe4L-9" style="edgeStyle=none;rounded=0;orthogonalLoop=1;jettySize=auto;html=1;entryX=0;entryY=0.25;entryDx=0;entryDy=0;fontSize=14;" edge="1" parent="1" source="6F3bBYGoPtr7Zg1Nwe4L-11" target="6F3bBYGoPtr7Zg1Nwe4L-7">
          <mxGeometry relative="1" as="geometry" />
        </mxCell>
        <mxCell id="6F3bBYGoPtr7Zg1Nwe4L-10" value="建立WebSocket连接" style="edgeLabel;html=1;align=center;verticalAlign=middle;resizable=0;points=[];fontSize=14;" vertex="1" connectable="0" parent="6F3bBYGoPtr7Zg1Nwe4L-9">
          <mxGeometry x="-0.3275" y="1" relative="1" as="geometry">
            <mxPoint as="offset" />
          </mxGeometry>
        </mxCell>
        <mxCell id="6F3bBYGoPtr7Zg1Nwe4L-11" value="Actor" style="shape=umlActor;verticalLabelPosition=bottom;verticalAlign=top;html=1;outlineConnect=0;fontSize=14;" vertex="1" parent="1">
          <mxGeometry x="120" y="430" width="30" height="60" as="geometry" />
        </mxCell>
        <mxCell id="6F3bBYGoPtr7Zg1Nwe4L-12" value="" style="endArrow=classic;startArrow=classic;html=1;fontSize=14;align=left;exitX=1;exitY=0.5;exitDx=0;exitDy=0;entryX=0.008;entryY=0.273;entryDx=0;entryDy=0;entryPerimeter=0;" edge="1" parent="1" source="6F3bBYGoPtr7Zg1Nwe4L-5" target="6F3bBYGoPtr7Zg1Nwe4L-14">
          <mxGeometry width="50" height="50" relative="1" as="geometry">
            <mxPoint x="720" y="510" as="sourcePoint" />
            <mxPoint x="770" y="460" as="targetPoint" />
          </mxGeometry>
        </mxCell>
        <mxCell id="6F3bBYGoPtr7Zg1Nwe4L-13" value="" style="endArrow=classic;startArrow=classic;html=1;fontSize=14;align=left;exitX=1;exitY=0.5;exitDx=0;exitDy=0;" edge="1" parent="1" source="6F3bBYGoPtr7Zg1Nwe4L-7" target="6F3bBYGoPtr7Zg1Nwe4L-14">
          <mxGeometry width="50" height="50" relative="1" as="geometry">
            <mxPoint x="720" y="510" as="sourcePoint" />
            <mxPoint x="770" y="460" as="targetPoint" />
          </mxGeometry>
        </mxCell>
        <mxCell id="6F3bBYGoPtr7Zg1Nwe4L-14" value="" style="rounded=0;whiteSpace=wrap;html=1;fontSize=14;fillColor=#d5e8d4;strokeColor=#82b366;" vertex="1" parent="1">
          <mxGeometry x="740" y="230" width="240" height="400" as="geometry" />
        </mxCell>
        <mxCell id="6F3bBYGoPtr7Zg1Nwe4L-15" value="DB" style="rounded=1;whiteSpace=wrap;html=1;fontSize=14;" vertex="1" parent="1">
          <mxGeometry x="800" y="282.5" width="120" height="78.75" as="geometry" />
        </mxCell>
        <mxCell id="6F3bBYGoPtr7Zg1Nwe4L-16" value="Zookeeper" style="rounded=1;whiteSpace=wrap;html=1;fontSize=14;" vertex="1" parent="1">
          <mxGeometry x="800" y="492.5" width="120" height="78.75" as="geometry" />
        </mxCell>
        <mxCell id="6F3bBYGoPtr7Zg1Nwe4L-17" value="" style="group" vertex="1" connectable="0" parent="1">
          <mxGeometry x="90" y="650" width="890" height="250" as="geometry" />
        </mxCell>
        <mxCell id="6F3bBYGoPtr7Zg1Nwe4L-18" value="" style="rounded=0;whiteSpace=wrap;html=1;fontSize=14;align=left;fillColor=#dae8fc;strokeColor=#6c8ebf;" vertex="1" parent="6F3bBYGoPtr7Zg1Nwe4L-17">
          <mxGeometry width="890" height="250" as="geometry" />
        </mxCell>
        <mxCell id="6F3bBYGoPtr7Zg1Nwe4L-19" value="Agent" style="rounded=1;whiteSpace=wrap;html=1;fontSize=14;" vertex="1" parent="6F3bBYGoPtr7Zg1Nwe4L-17">
          <mxGeometry x="277.8978947368421" y="95" width="164.21052631578948" height="60" as="geometry" />
        </mxCell>
        <mxCell id="6F3bBYGoPtr7Zg1Nwe4L-20" value="Application" style="rounded=1;whiteSpace=wrap;html=1;fontSize=14;align=center;" vertex="1" parent="6F3bBYGoPtr7Zg1Nwe4L-17">
          <mxGeometry x="569.9973684210527" y="95" width="164.21052631578948" height="60" as="geometry" />
        </mxCell>
        <mxCell id="6F3bBYGoPtr7Zg1Nwe4L-21" value="" style="endArrow=classic;startArrow=classic;html=1;fontSize=14;align=left;exitX=1;exitY=0.5;exitDx=0;exitDy=0;entryX=0;entryY=0.5;entryDx=0;entryDy=0;" edge="1" parent="6F3bBYGoPtr7Zg1Nwe4L-17" source="6F3bBYGoPtr7Zg1Nwe4L-19" target="6F3bBYGoPtr7Zg1Nwe4L-20">
          <mxGeometry width="50" height="50" relative="1" as="geometry">
            <mxPoint x="410.5263157894737" y="110" as="sourcePoint" />
            <mxPoint x="478.94736842105266" y="60" as="targetPoint" />
          </mxGeometry>
        </mxCell>
        <mxCell id="6F3bBYGoPtr7Zg1Nwe4L-22" value="attach" style="edgeLabel;html=1;align=center;verticalAlign=middle;resizable=0;points=[];fontSize=14;labelBorderColor=none;" vertex="1" connectable="0" parent="6F3bBYGoPtr7Zg1Nwe4L-21">
          <mxGeometry x="0.2143" y="1" relative="1" as="geometry">
            <mxPoint x="-15" y="1" as="offset" />
          </mxGeometry>
        </mxCell>
        <mxCell id="6F3bBYGoPtr7Zg1Nwe4L-23" style="edgeStyle=none;rounded=0;orthogonalLoop=1;jettySize=auto;html=1;exitX=0.25;exitY=1;exitDx=0;exitDy=0;entryX=0.322;entryY=-0.01;entryDx=0;entryDy=0;fontSize=14;align=left;entryPerimeter=0;" edge="1" parent="1" source="6F3bBYGoPtr7Zg1Nwe4L-7" target="6F3bBYGoPtr7Zg1Nwe4L-19">
          <mxGeometry relative="1" as="geometry" />
        </mxCell>
        <mxCell id="6F3bBYGoPtr7Zg1Nwe4L-24" style="edgeStyle=none;rounded=0;orthogonalLoop=1;jettySize=auto;html=1;exitX=0.68;exitY=-0.019;exitDx=0;exitDy=0;entryX=0.75;entryY=1;entryDx=0;entryDy=0;fontSize=14;align=left;exitPerimeter=0;" edge="1" parent="1" source="6F3bBYGoPtr7Zg1Nwe4L-19" target="6F3bBYGoPtr7Zg1Nwe4L-7">
          <mxGeometry relative="1" as="geometry" />
        </mxCell>
      </root>
    </mxGraphModel>
  </diagram>
</mxfile>
